<svg width="144" height="162" viewBox="0 0 144 162" fill="none" xmlns="http://www.w3.org/2000/svg">
<path d="M36 18.5C40.6944 18.5 44.5 22.3056 44.5 27V63C44.5 65.2543 43.6045 67.4163 42.0104 69.0104L24.0104 87.0104C20.691 90.3299 15.309 90.3299 11.9896 87.0104C8.67014 83.691 8.67014 78.309 11.9896 74.9896L27.5 59.4792V27C27.5 22.3056 31.3056 18.5 36 18.5ZM108 18.5C112.694 18.5 116.5 22.3056 116.5 27V63C116.5 65.2543 115.604 67.4163 114.01 69.0104L96.0104 87.0104C92.6909 90.3299 87.3091 90.3299 83.9896 87.0104C80.6701 83.691 80.6701 78.309 83.9896 74.9896L99.5 59.4792V27C99.5 22.3056 103.306 18.5 108 18.5Z" fill="black"/>
</svg>