<svg width="108" height="162" viewBox="0 0 108 162" fill="none" xmlns="http://www.w3.org/2000/svg">
<path fill-rule="evenodd" clip-rule="evenodd" d="M36 36.5C40.6944 36.5 44.5 40.3056 44.5 45V72.5H63.5V45C63.5 40.3056 67.3056 36.5 72 36.5C76.6944 36.5 80.5 40.3056 80.5 45V72.5H90C94.6944 72.5 98.5 76.3056 98.5 81C98.5 85.6944 94.6944 89.5 90 89.5H80.5V108.5H90C94.6944 108.5 98.5 112.306 98.5 117C98.5 121.694 94.6944 125.5 90 125.5H80.5V153C80.5 157.694 76.6944 161.5 72 161.5C67.3056 161.5 63.5 157.694 63.5 153V125.5H44.5V153C44.5 157.694 40.6944 161.5 36 161.5C31.3056 161.5 27.5 157.694 27.5 153V125.5H18C13.3056 125.5 9.5 121.694 9.5 117C9.5 112.306 13.3056 108.5 18 108.5H27.5V89.5H18C13.3056 89.5 9.5 85.6944 9.5 81C9.5 76.3056 13.3056 72.5 18 72.5H27.5V45C27.5 40.3056 31.3056 36.5 36 36.5ZM44.5 89.5V108.5H63.5V89.5H44.5Z" fill="black"/>
</svg>