<svg width="108" height="162" viewBox="0 0 108 162" fill="none" xmlns="http://www.w3.org/2000/svg">
<path d="M29.9896 38.9896C31.5837 37.3955 33.7457 36.5 36 36.5H72C74.2543 36.5 76.4163 37.3955 78.0104 38.9896L96.0104 56.9896C99.3299 60.309 99.3299 65.6909 96.0104 69.0104C92.6909 72.3299 87.3091 72.3299 83.9896 69.0104L68.4792 53.5H62.5V90.5H72C74.2543 90.5 76.4163 91.3955 78.0104 92.9896L96.0104 110.99C97.6045 112.584 98.5 114.746 98.5 117V135C98.5 137.254 97.6045 139.416 96.0104 141.01L78.0104 159.01C76.4163 160.604 74.2543 161.5 72 161.5H36C33.7457 161.5 31.5837 160.604 29.9896 159.01L11.9896 141.01C8.67014 137.691 8.67014 132.309 11.9896 128.99C15.309 125.67 20.691 125.67 24.0104 128.99L39.5208 144.5H45.5V107.5H36C33.7457 107.5 31.5837 106.604 29.9896 105.01L11.9896 87.0104C10.3955 85.4163 9.5 83.2543 9.5 81V63C9.5 60.7457 10.3955 58.5837 11.9896 56.9896L29.9896 38.9896ZM45.5 90.5V53.5H39.5208L26.5 66.5208V77.4792L39.5208 90.5H45.5ZM62.5 107.5V144.5H68.4792L81.5 131.479V120.521L68.4792 107.5H62.5Z" fill="black"/>
</svg>