<svg width="126" height="162" viewBox="0 0 126 162" fill="none" xmlns="http://www.w3.org/2000/svg">
<path d="M9.5 27C9.5 22.3056 13.3056 18.5 18 18.5H36C40.6944 18.5 44.5 22.3056 44.5 27V45C44.5 49.6944 40.6944 53.5 36 53.5H18C13.3056 53.5 9.5 49.6944 9.5 45V27ZM26.5 35.5V36.5H27.5V35.5H26.5ZM101.99 38.9896C105.309 35.6701 110.691 35.6701 114.01 38.9896C117.33 42.309 117.33 47.6909 114.01 51.0104L24.0104 141.01C20.691 144.33 15.309 144.33 11.9896 141.01C8.67014 137.691 8.67014 132.309 11.9896 128.99L101.99 38.9896ZM81.5 135C81.5 130.306 85.3056 126.5 90 126.5H108C112.694 126.5 116.5 130.306 116.5 135V153C116.5 157.694 112.694 161.5 108 161.5H90C85.3056 161.5 81.5 157.694 81.5 153V135ZM98.5 143.5V144.5H99.5V143.5H98.5Z" fill="black"/>
</svg>