<svg width="108" height="162" viewBox="0 0 108 162" fill="none" xmlns="http://www.w3.org/2000/svg">
<path fill-rule="evenodd" clip-rule="evenodd" d="M29.9896 38.9896C31.5837 37.3955 33.7457 36.5 36 36.5H54C56.2543 36.5 58.4163 37.3955 60.0104 38.9896L78.0104 56.9896C79.6045 58.5837 80.5 60.7457 80.5 63V81C80.5 83.2543 79.6045 85.4163 78.0104 87.0104L66.0208 99L72 104.979L83.9896 92.9896C87.3091 89.6701 92.6909 89.6701 96.0104 92.9896C99.3299 96.309 99.3299 101.691 96.0104 105.01L80.5 120.521V131.479L96.0104 146.99C99.3299 150.309 99.3299 155.691 96.0104 159.01C92.6909 162.33 87.3091 162.33 83.9896 159.01L72 147.021L60.0104 159.01C58.4163 160.604 56.2543 161.5 54 161.5H36C33.7457 161.5 31.5837 160.604 29.9896 159.01L11.9896 141.01C10.3955 139.416 9.5 137.254 9.5 135V117C9.5 114.746 10.3955 112.584 11.9896 110.99L23.9792 99L11.9896 87.0104C10.3955 85.4163 9.5 83.2543 9.5 81V63C9.5 60.7457 10.3955 58.5837 11.9896 56.9896L29.9896 38.9896ZM39.5208 107.5L26.5 120.521V131.479L39.5208 144.5H50.4792L63.5 131.479V120.521L50.4792 107.5H39.5208ZM50.4792 90.5L63.5 77.4792V66.5208L50.4792 53.5H39.5208L26.5 66.5208V77.4792L39.5208 90.5H50.4792Z" fill="black"/>
</svg>