<svg width="108" height="162" viewBox="0 0 108 162" fill="none" xmlns="http://www.w3.org/2000/svg">
<path fill-rule="evenodd" clip-rule="evenodd" d="M11.9896 56.9896C15.309 53.6701 20.691 53.6701 24.0104 56.9896L45.5 78.4792V63C45.5 58.3056 49.3056 54.5 54 54.5C58.6944 54.5 62.5 58.3056 62.5 63V78.4792L83.9896 56.9896C87.3091 53.6701 92.6909 53.6701 96.0104 56.9896C99.3299 60.309 99.3299 65.691 96.0104 69.0104L74.5208 90.5H90C94.6944 90.5 98.5 94.3056 98.5 99C98.5 103.694 94.6944 107.5 90 107.5H74.5208L96.0104 128.99C99.3299 132.309 99.3299 137.691 96.0104 141.01C92.6909 144.33 87.3091 144.33 83.9896 141.01L62.5 119.521V135C62.5 139.694 58.6944 143.5 54 143.5C49.3056 143.5 45.5 139.694 45.5 135V119.521L24.0104 141.01C20.691 144.33 15.309 144.33 11.9896 141.01C8.67014 137.691 8.67014 132.309 11.9896 128.99L33.4792 107.5H18C13.3056 107.5 9.5 103.694 9.5 99C9.5 94.3056 13.3056 90.5 18 90.5H33.4792L11.9896 69.0104C8.67014 65.691 8.67014 60.309 11.9896 56.9896Z" fill="black"/>
</svg>