<svg width="108" height="162" viewBox="0 0 108 162" fill="none" xmlns="http://www.w3.org/2000/svg">
<path d="M29.9896 38.9896C31.5837 37.3955 33.7457 36.5 36 36.5H72C74.2543 36.5 76.4163 37.3955 78.0104 38.9896L96.0104 56.9896C97.6045 58.5837 98.5 60.7457 98.5 63V135C98.5 137.254 97.6045 139.416 96.0104 141.01L78.0104 159.01C76.4163 160.604 74.2543 161.5 72 161.5H36C33.7457 161.5 31.5837 160.604 29.9896 159.01L11.9896 141.01C10.3955 139.416 9.5 137.254 9.5 135V63C9.5 60.7457 10.3955 58.5837 11.9896 56.9896L29.9896 38.9896ZM39.5208 53.5L26.5 66.5208V131.479L39.5208 144.5H68.4792L81.5 131.479V66.5208L68.4792 53.5H39.5208Z" fill="black"/>
</svg>