<svg width="90" height="162" viewBox="0 0 90 162" fill="none" xmlns="http://www.w3.org/2000/svg">
<path d="M38.7528 37.6473C41.929 38.9629 44 42.0623 44 45.5002V145H53.5C58.1944 145 62 148.806 62 153.5C62 158.195 58.1944 162 53.5 162H17.5C12.8056 162 9 158.195 9 153.5C9 148.806 12.8056 145 17.5 145H27V66.0211L23.5104 69.5107C20.191 72.8301 14.809 72.8301 11.4896 69.5107C8.17014 66.1912 8.17014 60.8093 11.4896 57.4898L29.4896 39.4898C31.9206 37.0589 35.5766 36.3316 38.7528 37.6473Z" fill="black"/>
</svg>