<svg width="108" height="162" viewBox="0 0 108 162" fill="none" xmlns="http://www.w3.org/2000/svg">
<path d="M28.4898 40.4896C30.0839 38.8955 32.2459 38 34.5002 38H70.5002C72.7546 38 74.9166 38.8955 76.5107 40.4896L94.5107 58.4896C96.1047 60.0837 97.0003 62.2457 97.0003 64.5V82.5C97.0003 84.7543 96.1047 86.9163 94.5107 88.5104L37.0211 146H88.5003C93.1947 146 97.0003 149.806 97.0003 154.5C97.0003 159.194 93.1947 163 88.5003 163H16.5002C13.0623 163 9.96291 160.929 8.64727 157.753C7.33163 154.577 8.05886 150.921 10.4898 148.49L80.0003 78.9792V68.0208L66.9794 55H38.0211L22.5107 70.5104C19.1912 73.8299 13.8093 73.8299 10.4898 70.5104C7.17038 67.1909 7.17038 61.809 10.4898 58.4896L28.4898 40.4896Z" fill="black"/>
</svg>