<svg width="108" height="162" viewBox="0 0 108 162" fill="none" xmlns="http://www.w3.org/2000/svg">
<path fill-rule="evenodd" clip-rule="evenodd" d="M29.4896 39.4896C31.0837 37.8955 33.2457 37 35.5 37H71.5C73.7543 37 75.9164 37.8955 77.5104 39.4896L95.5104 57.4896C97.1045 59.0837 98 61.2457 98 63.5V81.5C98 83.7543 97.1045 85.9163 95.5104 87.5104L83.5208 99.5L95.5104 111.49C97.1045 113.084 98 115.246 98 117.5V135.5C98 137.754 97.1045 139.916 95.5104 141.51L77.5104 159.51C75.9164 161.104 73.7543 162 71.5 162H35.5C33.2457 162 31.0837 161.104 29.4896 159.51L11.4896 141.51C8.17014 138.191 8.17014 132.809 11.4896 129.49C14.809 126.17 20.191 126.17 23.5104 129.49L39.0208 145H67.9792L81 131.979V121.021L67.9792 108H53.5C48.8056 108 45 104.194 45 99.5C45 94.8056 48.8056 91 53.5 91H67.9792L81 77.9792V67.0208L67.9792 54H39.0208L23.5104 69.5104C20.191 72.8299 14.809 72.8299 11.4896 69.5104C8.17014 66.1909 8.17014 60.809 11.4896 57.4896L29.4896 39.4896Z" fill="black"/>
</svg>