<svg width="108" height="162" viewBox="0 0 108 162" fill="none" xmlns="http://www.w3.org/2000/svg">
<path fill-rule="evenodd" clip-rule="evenodd" d="M74.7531 37.6473C77.9293 38.9629 80.0003 42.0623 80.0003 45.5002V91.0002H89.5003C94.1947 91.0002 98.0003 94.8058 98.0003 99.5002C98.0003 104.195 94.1947 108 89.5003 108H80.0003V153.5C80.0003 158.195 76.1947 162 71.5002 162C66.8058 162 63.0002 158.195 63.0002 153.5V108H17.5002C14.0623 108 10.9629 105.929 9.64727 102.753C8.33163 99.5768 9.05886 95.9208 11.4898 93.4898L65.4898 39.4898C67.9208 37.0589 71.5768 36.3316 74.7531 37.6473ZM63.0002 91.0002V66.0211L38.0211 91.0002H63.0002Z" fill="black"/>
</svg>