<svg width="108" height="162" viewBox="0 0 108 162" fill="none" xmlns="http://www.w3.org/2000/svg">
<path d="M9 45.5C9 40.8056 12.8056 37 17.5 37H89.5C94.1944 37 98 40.8056 98 45.5C98 50.1944 94.1944 54 89.5 54H26V85.7467L49.6987 73.8974C50.879 73.3072 52.1804 73 53.5 73H71.5C73.7543 73 75.9163 73.8955 77.5104 75.4896L95.5104 93.4896C97.1045 95.0837 98 97.2457 98 99.5V135.5C98 137.754 97.1045 139.916 95.5104 141.51L77.5104 159.51C75.9163 161.104 73.7543 162 71.5 162H35.5C33.2457 162 31.0837 161.104 29.4896 159.51L11.4896 141.51C8.17014 138.191 8.17014 132.809 11.4896 129.49C14.809 126.17 20.191 126.17 23.5104 129.49L39.0208 145H67.9792L81 131.979V103.021L67.9792 90H55.5066L21.3013 107.103C18.6664 108.42 15.5372 108.279 13.0313 106.731C10.5253 105.182 9 102.446 9 99.5V45.5Z" fill="black"/>
</svg>