<svg width="108" height="162" viewBox="0 0 108 162" fill="none" xmlns="http://www.w3.org/2000/svg">
<path fill-rule="evenodd" clip-rule="evenodd" d="M96.1026 41.7005C98.202 45.8994 96.5001 51.0051 92.3013 53.1045L57.5351 70.4876L37.0208 91.0019H70.5C72.7543 91.0019 74.9164 91.8974 76.5104 93.4915L94.5104 111.491C96.1045 113.086 97 115.248 97 117.502V135.502C97 137.756 96.1045 139.918 94.5104 141.512L76.5104 159.512C74.9164 161.106 72.7543 162.002 70.5 162.002H34.5C32.2457 162.002 30.0837 161.106 28.4896 159.512L10.4896 141.512C8.89553 139.918 8 137.756 8 135.502V99.5019C8 97.2475 8.89553 95.0855 10.4896 93.4915L46.4896 57.4915C47.1356 56.8454 47.8815 56.3078 48.6987 55.8992L84.6987 37.8992C88.8975 35.7998 94.0032 37.5017 96.1026 41.7005ZM25 108.002H66.9792L80 121.023V131.981L66.9792 145.002H38.0208L25 131.981V108.002Z" fill="black"/>
</svg>