<svg width="108" height="162" viewBox="0 0 108 162" fill="none" xmlns="http://www.w3.org/2000/svg">
<path d="M29.4896 39.4896C31.0837 37.8955 33.2457 37 35.5 37H71.5C73.7543 37 75.9163 37.8955 77.5104 39.4896L95.5104 57.4896C97.1045 59.0837 98 61.2457 98 63.5V81.5C98 83.7543 97.1045 85.9163 95.5104 87.5104L83.5208 99.5L95.5104 111.49C97.1045 113.084 98 115.246 98 117.5V135.5C98 137.754 97.1045 139.916 95.5104 141.51L77.5104 159.51C75.9163 161.104 73.7543 162 71.5 162H35.5C33.2457 162 31.0837 161.104 29.4896 159.51L11.4896 141.51C9.89553 139.916 9 137.754 9 135.5V117.5C9 115.246 9.89553 113.084 11.4896 111.49L23.4792 99.5L11.4896 87.5104C9.89553 85.9163 9 83.7543 9 81.5V63.5C9 61.2457 9.89553 59.0837 11.4896 57.4896L29.4896 39.4896ZM39.0208 108L26 121.021V131.979L39.0208 145H67.9792L81 131.979V121.021L67.9792 108H39.0208ZM67.9792 91L81 77.9792V67.0208L67.9792 54H39.0208L26 67.0208V77.9792L39.0208 91H67.9792Z" fill="black"/>
</svg>