<svg width="90" height="162" viewBox="0 0 90 162" fill="none" xmlns="http://www.w3.org/2000/svg">
<path d="M9.5 81C9.5 76.3056 13.3056 72.5 18 72.5H36C40.6944 72.5 44.5 76.3056 44.5 81V99C44.5 103.694 40.6944 107.5 36 107.5H18C13.3056 107.5 9.5 103.694 9.5 99V81ZM26.5 89.5V90.5H27.5V89.5H26.5ZM9.5 135C9.5 130.306 13.3056 126.5 18 126.5H36C40.6944 126.5 44.5 130.306 44.5 135V153C44.5 155.254 43.6045 157.416 42.0104 159.01L24.0104 177.01C20.691 180.33 15.309 180.33 11.9896 177.01C8.67014 173.691 8.67014 168.309 11.9896 164.99L15.7737 161.205C12.1591 160.227 9.5 156.924 9.5 153V135ZM27.5 144.5H26.5V143.5H27.5V144.5Z" fill="black"/>
</svg>