<svg width="108" height="162" viewBox="0 0 108 162" fill="none" xmlns="http://www.w3.org/2000/svg">
<path d="M29.4896 39.4896C31.0837 37.8955 33.2457 37 35.5 37H71.5C73.7543 37 75.9164 37.8955 77.5104 39.4896L95.5104 57.4896C97.1045 59.0837 98 61.2457 98 63.5V81.5C98 83.7543 97.1045 85.9163 95.5104 87.5104L59.5104 123.51C56.191 126.83 50.8091 126.83 47.4896 123.51C44.1701 120.191 44.1701 114.809 47.4896 111.49L81 77.9792V67.0208L67.9792 54H39.0208L23.5104 69.5104C20.191 72.8299 14.809 72.8299 11.4896 69.5104C8.17014 66.1909 8.17014 60.809 11.4896 57.4896L29.4896 39.4896ZM45 153.5V135.5C45 130.806 48.8056 127 53.5 127C58.1944 127 62 130.806 62 135.5V153.5C62 158.194 58.1944 162 53.5 162C48.8056 162 45 158.194 45 153.5Z" fill="black"/>
</svg>