<svg width="108" height="162" viewBox="0 0 108 162" fill="none" xmlns="http://www.w3.org/2000/svg">
<path d="M29.9896 38.9896C31.5837 37.3955 33.7457 36.5 36 36.5H72C74.2543 36.5 76.4164 37.3955 78.0104 38.9896L96.0104 56.9896C97.6045 58.5837 98.5 60.7457 98.5 63V99C98.5 101.254 97.6045 103.416 96.0104 105.01L78.0104 123.01C76.4164 124.604 74.2543 125.5 72 125.5H54C49.3056 125.5 45.5 121.694 45.5 117V99C45.5 94.3056 49.3056 90.5 54 90.5H72C75.9241 90.5 79.2271 93.1591 80.2055 96.7737L81.5 95.4792V66.5208L68.4792 53.5H39.5208L26.5 66.5208V131.479L39.5208 144.5H90C94.6944 144.5 98.5 148.306 98.5 153C98.5 157.694 94.6944 161.5 90 161.5H36C33.7457 161.5 31.5837 160.604 29.9896 159.01L11.9896 141.01C10.3955 139.416 9.5 137.254 9.5 135V63C9.5 60.7457 10.3955 58.5837 11.9896 56.9896L29.9896 38.9896ZM63.5 107.5H62.5V108.5H63.5V107.5Z" fill="black"/>
</svg>