<svg width="108" height="162" viewBox="0 0 108 162" fill="none" xmlns="http://www.w3.org/2000/svg">
<path d="M47.4896 39.4896C50.8091 36.1701 56.191 36.1701 59.5104 39.4896L95.5104 75.4896C97.1045 77.0837 98 79.2457 98 81.5V153.5C98 158.194 94.1944 162 89.5 162C84.8056 162 81 158.194 81 153.5V108H26V153.5C26 158.194 22.1944 162 17.5 162C12.8056 162 9 158.194 9 153.5V81.5C9 79.2457 9.89553 77.0837 11.4896 75.4896L47.4896 39.4896ZM26 91H81V85.0208L53.5 57.5208L26 85.0208V91Z" fill="black"/>
</svg>