<svg width="108" height="162" viewBox="0 0 108 162" fill="none" xmlns="http://www.w3.org/2000/svg">
<path fill-rule="evenodd" clip-rule="evenodd" d="M9 45.5C9 40.8056 12.8056 37 17.5 37H71.5C73.7543 37 75.9164 37.8955 77.5104 39.4896L95.5104 57.4896C97.1045 59.0837 98 61.2457 98 63.5V81.5C98 83.7543 97.1045 85.9163 95.5104 87.5104L83.5208 99.5L95.5104 111.49C97.1045 113.084 98 115.246 98 117.5V135.5C98 137.754 97.1045 139.916 95.5104 141.51L77.5104 159.51C75.9164 161.104 73.7543 162 71.5 162H17.5C12.8056 162 9 158.194 9 153.5V45.5ZM67.9792 91L81 77.9792V67.0208L67.9792 54H26V91H67.9792ZM26 108V145H67.9792L81 131.979V121.021L67.9792 108H26Z" fill="black"/>
</svg>