<svg width="108" height="162" viewBox="0 0 108 162" fill="none" xmlns="http://www.w3.org/2000/svg">
<path d="M29.4896 39.4896C31.0837 37.8955 33.2457 37 35.5 37H71.5C73.7543 37 75.9164 37.8955 77.5104 39.4896L95.5104 57.4896C98.8299 60.809 98.8299 66.1909 95.5104 69.5104C92.1909 72.8299 86.8091 72.8299 83.4896 69.5104L67.9792 54H39.0208L26 67.0208V131.979L39.0208 145H67.9792L83.4896 129.49C86.8091 126.17 92.1909 126.17 95.5104 129.49C98.8299 132.809 98.8299 138.191 95.5104 141.51L77.5104 159.51C75.9164 161.104 73.7543 162 71.5 162H35.5C33.2457 162 31.0837 161.104 29.4896 159.51L11.4896 141.51C9.89553 139.916 9 137.754 9 135.5V63.5C9 61.2457 9.89553 59.0837 11.4896 57.4896L29.4896 39.4896Z" fill="black"/>
</svg>