<svg width="108" height="162" viewBox="0 0 108 162" fill="none" xmlns="http://www.w3.org/2000/svg">
<path fill-rule="evenodd" clip-rule="evenodd" d="M45 45.5C45 40.8056 48.8056 37 53.5 37H89.5C94.1944 37 98 40.8056 98 45.5C98 50.1944 94.1944 54 89.5 54H80V135.5C80 137.754 79.1045 139.916 77.5104 141.51L59.5104 159.51C57.9163 161.104 55.7543 162 53.5 162H35.5C33.2457 162 31.0837 161.104 29.4896 159.51L11.4896 141.51C8.17014 138.191 8.17014 132.809 11.4896 129.49C14.809 126.17 20.191 126.17 23.5104 129.49L39.0208 145H49.9792L63 131.979V54H53.5C48.8056 54 45 50.1944 45 45.5Z" fill="black"/>
</svg>