<svg width="108" height="162" viewBox="0 0 108 162" fill="none" xmlns="http://www.w3.org/2000/svg">
<path fill-rule="evenodd" clip-rule="evenodd" d="M17.5 37C22.1944 37 26 40.8056 26 45.5V96.9792L83.4896 39.4896C86.8091 36.1701 92.1909 36.1701 95.5104 39.4896C98.8299 42.809 98.8299 48.191 95.5104 51.5104L47.5208 99.5L95.5104 147.49C98.8299 150.809 98.8299 156.191 95.5104 159.51C92.1909 162.83 86.8091 162.83 83.4896 159.51L35.5 111.521L26 121.021V153.5C26 158.194 22.1944 162 17.5 162C12.8056 162 9 158.194 9 153.5V45.5C9 40.8056 12.8056 37 17.5 37Z" fill="black"/>
</svg>