<svg width="108" height="162" viewBox="0 0 108 162" fill="none" xmlns="http://www.w3.org/2000/svg">
<path d="M14.2472 37.6473C17.4234 36.3316 21.0794 37.0589 23.5104 39.4898L53.5 69.4794L83.4896 39.4898C85.9206 37.0589 89.5766 36.3316 92.7528 37.6473C95.929 38.9629 98 42.0623 98 45.5002V153.5C98 158.195 94.1944 162 89.5 162C84.8056 162 81 158.195 81 153.5V66.0211L59.5104 87.5107C56.191 90.8301 50.809 90.8301 47.4896 87.5107L26 66.0211V153.5C26 158.195 22.1944 162 17.5 162C12.8056 162 9 158.195 9 153.5V45.5002C9 42.0623 11.071 38.9629 14.2472 37.6473Z" fill="black"/>
</svg>