<svg width="108" height="162" viewBox="0 0 108 162" fill="none" xmlns="http://www.w3.org/2000/svg">
<path fill-rule="evenodd" clip-rule="evenodd" d="M15.0368 37.3654C18.6218 36.2799 22.4947 37.6691 24.5724 40.7857L81 125.427V45.5007C81 40.8062 84.8056 37.0007 89.5 37.0007C94.1944 37.0007 98 40.8062 98 45.5007V153.501C98 157.246 95.5481 160.551 91.9632 161.636C88.3782 162.721 84.5053 161.332 82.4276 158.216L26 73.5743V153.501C26 158.195 22.1944 162.001 17.5 162.001C12.8056 162.001 9 158.195 9 153.501V45.5007C9 41.755 11.4519 38.4508 15.0368 37.3654Z" fill="black"/>
</svg>