<svg width="108" height="162" viewBox="0 0 108 162" fill="none" xmlns="http://www.w3.org/2000/svg">
<path d="M29.4896 39.4896C31.0837 37.8955 33.2457 37 35.5 37H71.5C73.7543 37 75.9164 37.8955 77.5104 39.4896L95.5104 57.4896C97.1045 59.0837 98 61.2457 98 63.5V135.5C98 137.754 97.1045 139.916 95.5104 141.51L92.5208 144.5L95.5104 147.49C98.8299 150.809 98.8299 156.191 95.5104 159.51C92.1909 162.83 86.8091 162.83 83.4896 159.51L80.5 156.521L77.5104 159.51C75.9164 161.104 73.7543 162 71.5 162H35.5C33.2457 162 31.0837 161.104 29.4896 159.51L11.4896 141.51C9.89553 139.916 9 137.754 9 135.5V63.5C9 61.2457 9.89553 59.0837 11.4896 57.4896L29.4896 39.4896ZM80.5 132.479L81 131.979V67.0208L67.9792 54H39.0208L26 67.0208V131.979L39.0208 145H67.9792L68.4792 144.5L47.4896 123.51C44.1701 120.191 44.1701 114.809 47.4896 111.49C50.8091 108.17 56.191 108.17 59.5104 111.49L80.5 132.479Z" fill="black"/>
</svg>