<svg width="108" height="162" viewBox="0 0 108 162" fill="none" xmlns="http://www.w3.org/2000/svg">
<path d="M9 45.5C9 40.8056 12.8056 37 17.5 37H71.5C73.7543 37 75.9163 37.8955 77.5104 39.4896L95.5104 57.4896C97.1045 59.0837 98 61.2457 98 63.5V99.5C98 101.754 97.1045 103.916 95.5104 105.51L77.5104 123.51C76.4523 124.568 75.144 125.319 73.7246 125.704L95.5104 147.49C98.8299 150.809 98.8299 156.191 95.5104 159.51C92.1909 162.83 86.8091 162.83 83.4896 159.51L49.9792 126H26V153.5C26 158.194 22.1944 162 17.5 162C12.8056 162 9 158.194 9 153.5V45.5ZM26 109H67.9792L81 95.9792V67.0208L67.9792 54H26V109Z" fill="black"/>
</svg>