<svg width="108" height="162" viewBox="0 0 108 162" fill="none" xmlns="http://www.w3.org/2000/svg">
<path d="M17.5 37C22.1944 37 26 40.8056 26 45.5V131.979L39.0208 145H67.9792L81 131.979V45.5C81 40.8056 84.8056 37 89.5 37C94.1944 37 98 40.8056 98 45.5V135.5C98 137.754 97.1045 139.916 95.5104 141.51L77.5104 159.51C75.9163 161.104 73.7543 162 71.5 162H35.5C33.2457 162 31.0837 161.104 29.4896 159.51L11.4896 141.51C9.89553 139.916 9 137.754 9 135.5V45.5C9 40.8056 12.8056 37 17.5 37Z" fill="black"/>
</svg>