<svg width="108" height="162" viewBox="0 0 108 162" fill="none" xmlns="http://www.w3.org/2000/svg">
<path d="M17.5 37C22.1944 37 26 40.8056 26 45.5V132.979L47.4896 111.49C50.8091 108.17 56.191 108.17 59.5104 111.49L81 132.979V45.5C81 40.8056 84.8056 37 89.5 37C94.1944 37 98 40.8056 98 45.5V153.5C98 156.938 95.929 160.037 92.7528 161.353C89.5766 162.669 85.9206 161.941 83.4896 159.51L53.5 129.521L23.5104 159.51C21.0794 161.941 17.4234 162.669 14.2472 161.353C11.071 160.037 9 156.938 9 153.5V45.5C9 40.8056 12.8056 37 17.5 37Z" fill="black"/>
</svg>