<svg width="108" height="162" viewBox="0 0 108 162" fill="none" xmlns="http://www.w3.org/2000/svg">
<path d="M12.786 38.4285C16.6919 35.8245 21.9693 36.88 24.5733 40.786L53.5009 84.1773L82.4285 40.786C85.0325 36.88 90.3099 35.8245 94.2159 38.4285C98.1218 41.0325 99.1773 46.3099 96.5733 50.2159L63.7166 99.5009L96.5733 148.786C99.1773 152.692 98.1218 157.969 94.2159 160.573C90.3099 163.177 85.0325 162.122 82.4285 158.216L53.5009 114.824L24.5733 158.216C21.9693 162.122 16.6919 163.177 12.786 160.573C8.87996 157.969 7.82448 152.692 10.4285 148.786L43.2852 99.5009L10.4285 50.2159C7.82448 46.3099 8.87996 41.0325 12.786 38.4285Z" fill="black"/>
</svg>