<svg width="108" height="162" viewBox="0 0 108 162" fill="none" xmlns="http://www.w3.org/2000/svg">
<path fill-rule="evenodd" clip-rule="evenodd" d="M17.5 37C22.1944 37 26 40.8056 26 45.5V59.9792L53.5 87.4792L81 59.9792V45.5C81 40.8056 84.8056 37 89.5 37C94.1944 37 98 40.8056 98 45.5V63.5C98 65.7543 97.1045 67.9163 95.5104 69.5104L62 103.021V153.5C62 158.194 58.1944 162 53.5 162C48.8056 162 45 158.194 45 153.5V103.021L11.4896 69.5104C9.89553 67.9163 9 65.7543 9 63.5V45.5C9 40.8056 12.8056 37 17.5 37Z" fill="black"/>
</svg>