<svg width="108" height="162" viewBox="0 0 108 162" fill="none" xmlns="http://www.w3.org/2000/svg">
<path fill-rule="evenodd" clip-rule="evenodd" d="M9 45.5C9 40.8056 12.8056 37 17.5 37H89.5C94.1944 37 98 40.8056 98 45.5V63.5C98 65.7543 97.1045 67.9163 95.5104 69.5104L26 139.021V145H89.5C94.1944 145 98 148.806 98 153.5C98 158.194 94.1944 162 89.5 162H17.5C12.8056 162 9 158.194 9 153.5V135.5C9 133.246 9.89553 131.084 11.4896 129.49L81 59.9792V54H17.5C12.8056 54 9 50.1944 9 45.5Z" fill="black"/>
</svg>