<svg width="108" height="162" viewBox="0 0 108 162" fill="none" xmlns="http://www.w3.org/2000/svg">
<path fill-rule="evenodd" clip-rule="evenodd" d="M27 81.5C27 76.8056 30.8056 73 35.5 73H72.1462C74.4544 73 76.6634 73.9387 78.2654 75.6004L95.6192 93.6004C97.1466 95.1846 98 97.2994 98 99.5V153.5C98 158.194 94.1944 162 89.5 162H35.5C33.2457 162 31.0837 161.104 29.4896 159.51L11.4896 141.51C9.88086 139.902 8.98419 137.715 9.00021 135.44C9.01623 133.165 9.94361 130.991 11.5748 129.406L29.5748 111.906C31.1615 110.363 33.2871 109.5 35.5 109.5H81V102.93L68.534 90H35.5C30.8056 90 27 86.1944 27 81.5ZM81 126.5H38.9509L29.6061 135.585L39.0208 145H81V126.5Z" fill="black"/>
</svg>