<svg width="108" height="162" viewBox="0 0 108 162" fill="none" xmlns="http://www.w3.org/2000/svg">
<path d="M29.4896 75.4896C31.0837 73.8955 33.2457 73 35.5 73H89.5C94.1944 73 98 76.8056 98 81.5C98 86.1944 94.1944 90 89.5 90H39.0208L26 103.021V131.979L39.0208 145H89.5C94.1944 145 98 148.806 98 153.5C98 158.194 94.1944 162 89.5 162H35.5C33.2457 162 31.0837 161.104 29.4896 159.51L11.4896 141.51C9.89553 139.916 9 137.754 9 135.5V99.5C9 97.2457 9.89553 95.0837 11.4896 93.4896L29.4896 75.4896Z" fill="black"/>
</svg>