<svg width="108" height="162" viewBox="0 0 108 162" fill="none" xmlns="http://www.w3.org/2000/svg">
<path fill-rule="evenodd" clip-rule="evenodd" d="M29.4896 75.4896C31.0837 73.8955 33.2457 73 35.5 73H71.5C73.7543 73 75.9164 73.8955 77.5104 75.4896L95.5104 93.4896C97.1045 95.0837 98 97.2457 98 99.5V117.5C98 122.194 94.1944 126 89.5 126H26V131.979L39.0208 145H71.5C76.1944 145 80 148.806 80 153.5C80 158.194 76.1944 162 71.5 162H35.5C33.2457 162 31.0837 161.104 29.4896 159.51L11.4896 141.51C9.89553 139.916 9 137.754 9 135.5V99.5C9 97.2457 9.89553 95.0837 11.4896 93.4896L29.4896 75.4896ZM26 109H81V103.021L67.9792 90H39.0208L26 103.021V109Z" fill="black"/>
</svg>