<svg width="90" height="162" viewBox="0 0 90 162" fill="none" xmlns="http://www.w3.org/2000/svg">
<path fill-rule="evenodd" clip-rule="evenodd" d="M59.5104 39.4896C62.8299 42.809 62.8299 48.191 59.5104 51.5104L44 67.0208V91H53.5C58.1944 91 62 94.8056 62 99.5C62 104.194 58.1944 108 53.5 108H44V153.5C44 158.194 40.1944 162 35.5 162C30.8056 162 27 158.194 27 153.5V108H17.5C12.8056 108 9 104.194 9 99.5C9 94.8056 12.8056 91 17.5 91H27V63.5C27 61.2457 27.8955 59.0837 29.4896 57.4896L47.4896 39.4896C50.8091 36.1701 56.191 36.1701 59.5104 39.4896Z" fill="black"/>
</svg>