<svg width="108" height="162" viewBox="0 0 108 162" fill="none" xmlns="http://www.w3.org/2000/svg">
<path d="M29.4896 75.4896C31.0837 73.8955 33.2457 73 35.5 73H89.5C94.1944 73 98 76.8056 98 81.5V171.5C98 173.754 97.1045 175.916 95.5104 177.51L77.5104 195.51C75.9163 197.104 73.7543 198 71.5 198H53.5C48.8056 198 45 194.194 45 189.5C45 184.806 48.8056 181 53.5 181H67.9792L81 167.979V162H35.5C33.2457 162 31.0837 161.104 29.4896 159.51L11.4896 141.51C9.89553 139.916 9 137.754 9 135.5V99.5C9 97.2457 9.89553 95.0837 11.4896 93.4896L29.4896 75.4896ZM81 145V90H39.0208L26 103.021V131.979L39.0208 145H81Z" fill="black"/>
</svg>