<svg width="108" height="162" viewBox="0 0 108 162" fill="none" xmlns="http://www.w3.org/2000/svg">
<path fill-rule="evenodd" clip-rule="evenodd" d="M17.5 37C22.1944 37 26 40.8056 26 45.5V78.9792L29.4896 75.4896C31.0837 73.8955 33.2457 73 35.5 73H71.5C73.7543 73 75.9164 73.8955 77.5104 75.4896L95.5104 93.4896C97.1045 95.0837 98 97.2457 98 99.5V153.5C98 158.194 94.1944 162 89.5 162C84.8056 162 81 158.194 81 153.5V103.021L67.9792 90H39.0208L26 103.021V153.5C26 158.194 22.1944 162 17.5 162C12.8056 162 9 158.194 9 153.5V45.5C9 40.8056 12.8056 37 17.5 37Z" fill="black"/>
</svg>