<svg width="90" height="162" viewBox="0 0 90 162" fill="none" xmlns="http://www.w3.org/2000/svg">
<path fill-rule="evenodd" clip-rule="evenodd" d="M9 81.5C9 76.8056 12.8056 73 17.5 73H35.5C40.1944 73 44 76.8056 44 81.5V145H53.5C58.1944 145 62 148.806 62 153.5C62 158.194 58.1944 162 53.5 162H17.5C12.8056 162 9 158.194 9 153.5C9 148.806 12.8056 145 17.5 145H27V90H17.5C12.8056 90 9 86.1944 9 81.5Z" fill="black"/>
<path d="M44 45.5C44 50.1944 40.1944 54 35.5 54C30.8056 54 27 50.1944 27 45.5C27 40.8056 30.8056 37 35.5 37C40.1944 37 44 40.8056 44 45.5Z" fill="black"/>
</svg>