<svg width="108" height="162" viewBox="0 0 108 162" fill="none" xmlns="http://www.w3.org/2000/svg">
<path fill-rule="evenodd" clip-rule="evenodd" d="M53.5 73C58.1944 73 62 76.8056 62 81.5V171.5C62 173.754 61.1045 175.916 59.5104 177.51L41.5104 195.51C39.9163 197.104 37.7543 198 35.5 198H17.5C12.8056 198 9 194.194 9 189.5C9 184.806 12.8056 181 17.5 181H31.9792L45 167.979V81.5C45 76.8056 48.8056 73 53.5 73Z" fill="black"/>
<path d="M62 45.5C62 50.1944 58.1944 54 53.5 54C48.8056 54 45 50.1944 45 45.5C45 40.8056 48.8056 37 53.5 37C58.1944 37 62 40.8056 62 45.5Z" fill="black"/>
</svg>