<svg width="108" height="162" viewBox="0 0 108 162" fill="none" xmlns="http://www.w3.org/2000/svg">
<path fill-rule="evenodd" clip-rule="evenodd" d="M17.5 37C22.1944 37 26 40.8056 26 45.5V101.618L66.785 74.4276C70.691 71.8236 75.9684 72.8791 78.5724 76.785C81.1764 80.691 80.1209 85.9684 76.215 88.5724L32.8236 117.5L76.215 146.428C80.1209 149.032 81.1764 154.309 78.5724 158.215C75.9684 162.121 70.691 163.176 66.785 160.572L26 133.382V153.5C26 158.194 22.1944 162 17.5 162C12.8056 162 9 158.194 9 153.5V45.5C9 40.8056 12.8056 37 17.5 37Z" fill="black"/>
</svg>