<svg width="108" height="162" viewBox="0 0 108 162" fill="none" xmlns="http://www.w3.org/2000/svg">
<path fill-rule="evenodd" clip-rule="evenodd" d="M9 81.5C9 76.8056 12.8056 73 17.5 73H35.5C37.7543 73 39.9163 73.8955 41.5104 75.4896L53.5 87.4792L65.4896 75.4896C68.809 72.1701 74.1909 72.1701 77.5104 75.4896L95.5104 93.4896C97.1045 95.0837 98 97.2457 98 99.5V153.5C98 158.194 94.1944 162 89.5 162C84.8056 162 81 158.194 81 153.5V103.021L71.5 93.5208L62 103.021V153.5C62 158.194 58.1944 162 53.5 162C48.8056 162 45 158.194 45 153.5V103.021L31.9792 90H26V153.5C26 158.194 22.1944 162 17.5 162C12.8056 162 9 158.194 9 153.5V81.5Z" fill="black"/>
</svg>