<svg width="108" height="162" viewBox="0 0 108 162" fill="none" xmlns="http://www.w3.org/2000/svg">
<path fill-rule="evenodd" clip-rule="evenodd" d="M9 81.5C9 76.8056 12.8056 73 17.5 73H71.5C73.7543 73 75.9164 73.8955 77.5104 75.4896L95.5104 93.4896C97.1045 95.0837 98 97.2457 98 99.5V135.5C98 137.754 97.1045 139.916 95.5104 141.51L77.5104 159.51C75.9164 161.104 73.7543 162 71.5 162H26V189.5C26 194.194 22.1944 198 17.5 198C12.8056 198 9 194.194 9 189.5V81.5ZM26 145H67.9792L81 131.979V103.021L67.9792 90H26V145Z" fill="black"/>
</svg>