<svg width="108" height="162" viewBox="0 0 108 162" fill="none" xmlns="http://www.w3.org/2000/svg">
<path d="M29.4896 75.4896C31.0837 73.8955 33.2457 73 35.5 73H89.5C94.1944 73 98 76.8056 98 81.5C98 86.1944 94.1944 90 89.5 90H39.0208L29.5208 99.5L39.0208 109H71.5C73.7543 109 75.9164 109.896 77.5104 111.49L95.5104 129.49C98.8299 132.809 98.8299 138.191 95.5104 141.51L77.5104 159.51C75.9164 161.104 73.7543 162 71.5 162H17.5C12.8056 162 9 158.194 9 153.5C9 148.806 12.8056 145 17.5 145H67.9792L77.4792 135.5L67.9792 126H35.5C33.2457 126 31.0837 125.104 29.4896 123.51L11.4896 105.51C8.17014 102.191 8.17014 96.809 11.4896 93.4896L29.4896 75.4896Z" fill="black"/>
</svg>