<svg width="99" height="162" viewBox="0 0 99 162" fill="none" xmlns="http://www.w3.org/2000/svg">
<path d="M35.5 55C40.1944 55 44 58.8056 44 63.5V73H53.5C58.1944 73 62 76.8056 62 81.5C62 86.1944 58.1944 90 53.5 90H44V131.979L59.5104 147.49C62.8299 150.809 62.8299 156.191 59.5104 159.51C56.191 162.83 50.809 162.83 47.4896 159.51L29.4896 141.51C27.8955 139.916 27 137.754 27 135.5V90H17.5C12.8056 90 9 86.1944 9 81.5C9 76.8056 12.8056 73 17.5 73H27V63.5C27 58.8056 30.8056 55 35.5 55Z" fill="black"/>
</svg>