<svg width="108" height="162" viewBox="0 0 108 162" fill="none" xmlns="http://www.w3.org/2000/svg">
<path d="M17.5 73C22.1944 73 26 76.8056 26 81.5V131.979L35.5 141.479L47.4896 129.49C50.8091 126.17 56.191 126.17 59.5104 129.49L71.5 141.479L81 131.979V81.5C81 76.8056 84.8056 73 89.5 73C94.1944 73 98 76.8056 98 81.5V135.5C98 137.754 97.1045 139.916 95.5104 141.51L77.5104 159.51C74.1909 162.83 68.809 162.83 65.4896 159.51L53.5 147.521L41.5104 159.51C38.1909 162.83 32.809 162.83 29.4896 159.51L11.4896 141.51C9.89553 139.916 9 137.754 9 135.5V81.5C9 76.8056 12.8056 73 17.5 73Z" fill="black"/>
</svg>