<svg width="108" height="162" viewBox="0 0 108 162" fill="none" xmlns="http://www.w3.org/2000/svg">
<path fill-rule="evenodd" clip-rule="evenodd" d="M11.4896 75.4896C14.809 72.1701 20.191 72.1701 23.5104 75.4896L53.5 105.479L83.4896 75.4896C86.8091 72.1701 92.1909 72.1701 95.5104 75.4896C98.8299 78.809 98.8299 84.191 95.5104 87.5104L65.5208 117.5L95.5104 147.49C98.8299 150.809 98.8299 156.191 95.5104 159.51C92.1909 162.83 86.8091 162.83 83.4896 159.51L53.5 129.521L23.5104 159.51C20.191 162.83 14.809 162.83 11.4896 159.51C8.17014 156.191 8.17014 150.809 11.4896 147.49L41.4792 117.5L11.4896 87.5104C8.17014 84.191 8.17014 78.809 11.4896 75.4896Z" fill="black"/>
</svg>