<svg width="108" height="162" viewBox="0 0 108 162" fill="none" xmlns="http://www.w3.org/2000/svg">
<path fill-rule="evenodd" clip-rule="evenodd" d="M17.5 73C22.1944 73 26 76.8056 26 81.5V131.979L39.0208 145H81V81.5C81 76.8056 84.8056 73 89.5 73C94.1944 73 98 76.8056 98 81.5V171.5C98 173.754 97.1045 175.916 95.5104 177.51L77.5104 195.51C75.9164 197.104 73.7543 198 71.5 198H53.5C48.8056 198 45 194.194 45 189.5C45 184.806 48.8056 181 53.5 181H67.9792L81 167.979V162H35.5C33.2457 162 31.0837 161.104 29.4896 159.51L11.4896 141.51C9.89553 139.916 9 137.754 9 135.5V81.5C9 76.8056 12.8056 73 17.5 73Z" fill="black"/>
</svg>