<svg width="108" height="162" viewBox="0 0 108 162" fill="none" xmlns="http://www.w3.org/2000/svg">
<path fill-rule="evenodd" clip-rule="evenodd" d="M17.5002 90C12.8058 90 9.00025 86.1944 9.00025 81.5C9.00025 76.8056 12.8058 73 17.5002 73H89.5003C92.9382 73 96.0376 75.071 97.3532 78.2472C98.6689 81.4234 97.9416 85.0794 95.5107 87.5104L38.0211 145H89.5003C94.1947 145 98.0003 148.806 98.0003 153.5C98.0003 158.194 94.1947 162 89.5003 162H17.5002C14.0623 162 10.9629 159.929 9.64727 156.753C8.33163 153.577 9.05886 149.921 11.4898 147.49L68.9794 90H17.5002Z" fill="black"/>
</svg>