<svg width="108" height="162" viewBox="0 0 108 162" fill="none" xmlns="http://www.w3.org/2000/svg">
<path fill-rule="evenodd" clip-rule="evenodd" d="M47.4896 39.4896C49.0837 37.8955 51.2457 37 53.5 37H71.5C76.1944 37 80 40.8056 80 45.5C80 50.1944 76.1944 54 71.5 54H57.0208L44 67.0208V81.5C44 83.7543 43.1045 85.9163 41.5104 87.5104L29.5208 99.5L41.5104 111.49C43.1045 113.084 44 115.246 44 117.5V131.979L57.0208 145H71.5C76.1944 145 80 148.806 80 153.5C80 158.194 76.1944 162 71.5 162H53.5C51.2457 162 49.0837 161.104 47.4896 159.51L29.4896 141.51C27.8955 139.916 27 137.754 27 135.5V121.021L11.4896 105.51C8.17014 102.191 8.17014 96.809 11.4896 93.4896L27 77.9792V63.5C27 61.2457 27.8955 59.0837 29.4896 57.4896L47.4896 39.4896Z" fill="black"/>
</svg>