<svg width="108" height="162" viewBox="0 0 108 162" fill="none" xmlns="http://www.w3.org/2000/svg">
<path d="M9 45.5C9 40.8056 12.8056 37 17.5 37H35.5C37.7543 37 39.9163 37.8955 41.5104 39.4896L59.5104 57.4896C61.1045 59.0837 62 61.2457 62 63.5V77.9792L77.5104 93.4896C80.8299 96.809 80.8299 102.191 77.5104 105.51L62 121.021V135.5C62 137.754 61.1045 139.916 59.5104 141.51L41.5104 159.51C39.9163 161.104 37.7543 162 35.5 162H17.5C12.8056 162 9 158.194 9 153.5C9 148.806 12.8056 145 17.5 145H31.9792L45 131.979V117.5C45 115.246 45.8955 113.084 47.4896 111.49L59.4792 99.5L47.4896 87.5104C45.8955 85.9163 45 83.7543 45 81.5V67.0208L31.9792 54H17.5C12.8056 54 9 50.1944 9 45.5Z" fill="black"/>
</svg>